<svg width="342" height="239" viewBox="0 0 342 239" fill="none" xmlns="http://www.w3.org/2000/svg">
<path d="M316.715 93.6808C344.798 65.5787 291.746 34 184.45 34C118.185 34 -32.0296 35.806 27.6318 74.5052C67.7206 97.4668 -25.6627 99.7888 7.1158 155.774C39.8942 211.759 90.018 151.626 230.034 199.634C287.149 219.217 342 181.08 342 151.511C342 126.451 292.212 118.201 316.715 93.6808Z" fill="#F5F5F5"/>
<g clip-path="url(#clip0)">
<path d="M194.258 116.006L178.337 108.833C177.351 108.387 176.917 107.231 177.364 106.246C177.811 105.26 178.968 104.827 179.954 105.274L195.875 112.446C196.861 112.893 197.295 114.049 196.848 115.034C196.401 116.019 195.244 116.452 194.258 116.006Z" fill="#8E3688"/>
<path d="M185.068 136.249L183.753 135.96L190.314 113.681L191.628 113.957L185.068 136.249Z" fill="#8E3688"/>
<path d="M179.217 127.986L177.903 127.71L182.662 109.622L183.977 109.911L179.217 127.986Z" fill="#8E3688"/>
<path d="M193.298 29.32L199.582 45.9241L209.535 36.0851L200.174 21.3989L193.298 29.32Z" fill="#FDC0C5"/>
<path d="M199.28 27.0474L193.298 29.3069L195.993 36.4398C199.688 33.4185 199.28 27.0474 199.28 27.0474Z" fill="#EDB2BB"/>
<path d="M185.909 107.494L189.643 109.714C189.643 109.714 197.807 77.5167 201.41 55.9208C197.281 53.8321 196.453 49.3658 193.758 49.7337C187.369 68.6629 185.909 107.494 185.909 107.494Z" fill="#FDC0C5"/>
<path d="M272.43 179.624L280.62 183.592L283.013 180.623L277.215 176.327C277.202 176.327 271.063 177.982 272.43 179.624Z" fill="#FDC0C6"/>
<path d="M281.988 180.675C281.988 180.675 268.341 186.889 272.101 195.48L283.013 180.675" fill="#7A2E75"/>
<path d="M224.167 85.648C224.443 84.9124 235.894 88.2884 235.421 117.07C235.355 121.103 244.729 142.344 248.095 144.551C254.34 148.61 264.029 154.902 269.117 161.602C276.887 171.808 278.11 175.079 278.11 175.079L273.613 181.608C273.613 181.608 219.921 158.515 213.781 109.648C207.642 60.7812 224.167 85.648 224.167 85.648Z" fill="#8E3688"/>
<path d="M222.09 135.382C224.969 128.209 230.057 112.84 222.931 108.505C218.764 105.97 215.648 108.663 214.425 113.786C215.898 121.707 218.606 128.892 222.09 135.382Z" fill="#7A2E75"/>
<path d="M184.529 205.279C185.725 205.582 187.697 208.064 189.433 207.316C189.867 205.214 193.048 194.087 193.89 191.04L187.5 190.173C186.922 193.969 187.224 202.363 186.172 204.872C185.923 205.437 183.924 205.122 184.529 205.279Z" fill="#FDC0C6"/>
<path d="M224.167 85.648C215.543 85.648 206.287 76.8862 206.287 76.8862C206.287 76.8862 205.354 83.4017 203.329 97.4837C202.37 104.144 194.692 137.641 192.706 146.482C191.234 153.037 184.529 178.324 184.529 193.838L195.559 195.467C197.098 189.884 199.924 184.104 200.871 179.546C203.316 167.71 210.297 149.411 212.309 144.432C214.333 139.454 228.65 119.684 230.701 108.505C232.963 96.1964 226.231 85.648 224.167 85.648Z" fill="#8E3688"/>
<path d="M215.858 37.3462C207.812 33.3396 201.541 42.1015 199.701 43.2575C198.57 43.9799 197.479 40.3412 197.479 40.3412L196.427 43.1524C186.356 67.1916 190.458 65.589 194.56 70.5151C202.816 80.4329 200.082 96.1438 203.25 97.6544L213.347 92.7284C220.644 89.5625 225.627 87.2112 224.417 82.3639C223.641 79.2638 219.645 72.3279 221.682 63.3427C223.142 56.8666 223.891 41.3527 215.858 37.3462Z" fill="#FF7929"/>
<path d="M90.8565 233.168C90.8565 236.386 88.2402 239 85.0192 239C81.7981 239 79.1819 236.386 79.1819 233.168C79.1819 229.949 81.7981 227.335 85.0192 227.335C88.2402 227.335 90.8565 229.949 90.8565 233.168Z" fill="#8E3688"/>
<path d="M158.971 233.168C158.971 236.386 156.355 239 153.134 239C149.913 239 147.297 236.386 147.297 233.168C147.297 229.949 149.913 227.335 153.134 227.335C156.355 227.335 158.971 229.949 158.971 233.168Z" fill="#8E3688"/>
<path d="M163.48 207.434H77.2754C72.2927 207.434 68.0725 203.769 67.3625 198.843L60.1054 148.058C59.3034 142.423 63.3527 137.247 69.0322 136.695L174.103 126.318C180.756 125.661 186.172 131.572 184.923 138.14L173.314 199.302C172.42 204.018 168.279 207.434 163.48 207.434ZM78.4586 206.081H162.35C168.319 206.081 171.316 203.204 172.184 197.949L183.24 139.677C185.094 133.148 180.953 126.699 172.42 127.855L70.5704 137.917C64.1284 138.285 60.5392 142.396 61.6436 149.28L68.5326 197.49C69.2294 203.401 72.6476 206.081 78.4586 206.081Z" fill="#8E3688"/>
<path d="M171.408 228.478H74.6328V227.177H171.408C174.195 227.177 179.941 224.34 179.941 215.591C179.941 207.092 169.87 205.253 169.515 205.2L170.961 204.071C171.053 204.084 181.242 205.975 181.242 215.591C181.242 225.338 174.616 228.478 171.408 228.478Z" fill="#8E3688"/>
<path d="M75.7284 136.585L74.3663 136.704L80.4812 206.756L81.8433 206.637L75.7284 136.585Z" fill="#8E3688"/>
<path d="M96.8438 134.727L95.4768 134.753L96.8379 206.804L98.2049 206.778L96.8438 134.727Z" fill="#8E3688"/>
<path d="M119.304 132.536L116.55 206.664L117.916 206.714L120.67 132.586L119.304 132.536Z" fill="#8E3688"/>
<path d="M143.797 129.762L134.948 206.611L136.306 206.767L145.155 129.918L143.797 129.762Z" fill="#8E3688"/>
<path d="M168.316 127.699L155.364 206.578L156.713 206.799L169.665 127.92L168.316 127.699Z" fill="#8E3688"/>
<path d="M183.208 142.072L61.3846 151.62L61.4916 152.982L183.314 143.434L183.208 142.072Z" fill="#8E3688"/>
<path d="M179.173 165.918L64.1367 170.646L64.1929 172.011L179.229 167.284L179.173 165.918Z" fill="#8E3688"/>
<path d="M174.429 189.717L66.8861 190.346L66.8941 191.712L174.437 191.083L174.429 189.717Z" fill="#8E3688"/>
<path d="M189.538 207C189.538 207 177.89 197.582 171.868 204.767L189.998 207.92" fill="#7A2E75"/>
<path d="M214.964 40.3412C214.964 40.3412 216.318 47.75 212.729 60.0587C209.14 72.3673 201.147 89.9566 201.147 89.9566C201.147 89.9566 200.634 85.5823 200.2 83.6381C201.213 77.5955 214.964 40.3412 214.964 40.3412Z" fill="#CC5425"/>
<path d="M214.36 39.5006C213.071 39.0408 211.914 37.4645 211.086 37.8717C207.273 39.1065 203.461 45.7666 199.99 54.489C202.711 54.6204 206.734 55.356 210.415 58.1671C214.11 47.9997 216.253 40.1837 214.36 39.5006Z" fill="#FF7929"/>
<path d="M185.751 106.062L189.025 108.925C189.025 108.925 202.935 78.7516 210.415 58.1803C206.734 55.3692 202.711 54.6204 199.99 54.5022C191.944 74.7319 185.751 106.062 185.751 106.062Z" fill="#FDC0C5"/>
<path d="M187.632 104.958C187.632 104.958 180.335 103.96 180.992 108.071C181.663 112.183 186.159 114.64 186.567 111.776C186.974 108.912 185.37 107.638 187.198 108.071C189.025 108.505 187.632 104.958 187.632 104.958Z" fill="#FDC0C5"/>
<path d="M190.077 106.6C190.077 106.6 182.78 105.602 183.438 109.714C184.108 113.825 188.604 116.282 189.012 113.418C189.419 110.554 187.815 109.28 189.643 109.714C191.47 110.147 190.077 106.6 190.077 106.6Z" fill="#FDC0C5"/>
<path d="M185.83 5.87185C185.83 5.87185 179.073 28.1771 188.749 33.6286C198.425 39.0802 206.747 16.9457 206.747 16.9457C206.747 16.9457 197.557 0.683053 185.83 5.87185Z" fill="#FDC0C5"/>
<path d="M181.991 5.07059C184.463 2.91626 188.578 4.70278 188.578 4.70278C197.019 -5.54345 208.798 2.99508 209.811 10.798C210.823 18.6009 212.151 21.7798 223.247 17.9047C234.343 14.0295 234.737 19.4679 236.473 28.0852C238.208 36.7026 249.068 28.545 254.589 38.187C260.111 47.8421 246.833 78.6333 221.866 66.4035C211.27 61.2147 200.7 40.2625 200.095 26.0097C200.042 24.6304 200.371 19.7175 199.227 19.1657C193.653 16.5122 194.376 9.69454 193.692 8.9195C191.536 6.4499 189.078 8.60423 189.078 8.60423C185.278 7.56647 184.056 14.371 184.056 14.371C184.056 14.371 179.52 7.22493 181.991 5.07059Z" fill="#8E3688"/>
<path d="M196.953 18.4563C196.729 20.2034 197.492 21.7535 198.662 21.898C199.832 22.0425 200.962 20.742 201.186 18.9949C201.409 17.2478 200.647 15.6977 199.477 15.5532C198.294 15.3956 197.176 16.6961 196.953 18.4563Z" fill="#FDC0C5"/>
</g>
<defs>
<clipPath id="clip0">
<rect x="60" width="223" height="239" fill="white"/>
</clipPath>
</defs>
</svg>
